<svg xmlns="http://www.w3.org/2000/svg" xmlns:xlink="http://www.w3.org/1999/xlink" width="169.159" height="42.542" viewBox="0 0 169.159 42.542">
  <defs>
    <clipPath id="clip-path">
      <rect id="Retângulo_39" data-name="Retângulo 39" width="169.159" height="42.542" fill="#fff"/>
    </clipPath>
  </defs>
  <g id="Grupo_20" data-name="Grupo 20" transform="translate(0 0)">
    <g id="Grupo_19" data-name="Grupo 19" transform="translate(0 0)" clip-path="url(#clip-path)">
      <path id="Caminho_88" data-name="Caminho 88" d="M45.283,0,60.771.025,35.285,37.76,27.169,21.627,19,37.76,0,0H9.057L19,19.746l3.613-7.126L16.282,0h9.057l9.947,19.746Z" transform="translate(0 0)" fill="#fff"/>
      <path id="Caminho_89" data-name="Caminho 89" d="M134.986,18.509a18.208,18.208,0,0,1-1.336,7.424,18.615,18.615,0,0,1-4.256,6.285,13.375,13.375,0,0,1-1.534,1.336l1.93,4.207H115.982q-.446,0-.915-.025c-.314-.016-.619-.041-.916-.074h-.1a.2.2,0,0,1-.149-.049,18.6,18.6,0,0,1-6.111-1.658,19.064,19.064,0,0,1-5.37-3.737l.049-.049a19.208,19.208,0,0,1-4.058-5.988,18.167,18.167,0,0,1-1.485-7.325,18.041,18.041,0,0,1,1.485-7.275,19.21,19.21,0,0,1,4.058-5.988l-.049-.05A19.165,19.165,0,0,1,113.854.1Q114.4.05,114.918.025T115.982,0a18.978,18.978,0,0,1,13.411,5.542,18.312,18.312,0,0,1,4.083,5.939,19.091,19.091,0,0,1,1.51,7.028m-10.64,7.424a11.5,11.5,0,0,0,1.979-3.39,10.288,10.288,0,0,0,.644-3.885A10.976,10.976,0,0,0,126.1,14.6a10.489,10.489,0,0,0-2.4-3.464,10.6,10.6,0,0,0-4.083-2.573,11.356,11.356,0,0,0-4.676-.594.342.342,0,0,0-.149.025.342.342,0,0,1-.148.025,1.609,1.609,0,0,0-.248.024,1.485,1.485,0,0,1-.248.025,11.269,11.269,0,0,0-6.532,3.712,11.328,11.328,0,0,0-1.955,3.241,10.293,10.293,0,0,0-.717,3.836,10.476,10.476,0,0,0,.717,3.86,11.107,11.107,0,0,0,4.875,5.667,10.392,10.392,0,0,0,3.662,1.262.436.436,0,0,0,.2.049.45.45,0,0,1,.2.049h.347a5.68,5.68,0,0,0,1.187.075,9.592,9.592,0,0,0,1.188-.124L110.39,14.55h8.76l3.662,7.918Z" transform="translate(-54.147 0)" fill="#fff"/>
      <text id="CodeHub" transform="translate(82.051 36.078)" fill="#fff" font-size="15" font-family="SamsungSharpSans-Bold, Samsung Sharp Sans" font-weight="700"><tspan x="0" y="0" letter-spacing="0.005em">C</tspan><tspan y="0" letter-spacing="0.004em">o</tspan><tspan y="0">deHub</tspan></text>
    </g>
  </g>
</svg>
